<?xml version="1.0" encoding="UTF-8"?>
<svg id="a" data-name="Capa 1" xmlns="http://www.w3.org/2000/svg" width="293.42" height="62.38" viewBox="0 0 293.42 62.38">
  <g>
    <path d="M99.6,38.19h-15.71l-3.1,7.27h-6.01l14.14-31.41h5.74l14.18,31.41h-6.1l-3.14-7.27Zm-1.93-4.58l-5.92-13.73-5.88,13.73h11.8Z" style="fill: #fff;"/>
    <path d="M109.34,43.08l2.15-4.26c2.11,1.39,5.34,2.38,8.35,2.38,3.54,0,5.03-.99,5.03-2.65,0-4.58-14.81-.27-14.81-9.83,0-4.53,4.08-7.49,10.55-7.49,3.19,0,6.82,.76,8.97,2.06l-2.15,4.26c-2.29-1.35-4.58-1.79-6.87-1.79-3.41,0-5.03,1.12-5.03,2.69,0,4.85,14.81,.54,14.81,9.92,0,4.49-4.13,7.41-10.86,7.41-3.99,0-7.99-1.17-10.14-2.69Z" style="fill: #fff;"/>
    <path d="M133.22,33.48c0-7.18,5.39-12.25,12.75-12.25s12.79,5.07,12.79,12.25-5.34,12.3-12.79,12.3-12.75-5.12-12.75-12.3Zm19.88,0c0-4.58-3.05-7.5-7.13-7.5s-7.09,2.92-7.09,7.5,3.05,7.49,7.09,7.49,7.13-2.92,7.13-7.49Z" style="fill: #fff;"/>
    <path d="M170.33,20.24v1.44h6.6v4.49h-6.42v19.3h-5.61V26.16h-3.95v-4.49h3.95v-1.53c0-5.03,3.01-8.3,8.57-8.3,1.93,0,3.81,.4,5.07,1.3l-1.57,4.22c-.85-.58-1.93-.99-3.1-.99-2.33,0-3.54,1.3-3.54,3.86Z" style="fill: #fff;"/>
    <path d="M200.3,31.41v14.05h-5.29v-2.92c-1.35,2.06-3.95,3.23-7.54,3.23-5.48,0-8.93-3.01-8.93-7.18s2.69-7.13,9.96-7.13h6.19v-.36c0-3.28-1.97-5.21-5.97-5.21-2.69,0-5.47,.9-7.27,2.38l-2.2-4.08c2.56-1.97,6.28-2.96,10.14-2.96,6.91,0,10.9,3.28,10.9,10.19Zm-5.61,6.55v-2.78h-5.79c-3.81,0-4.85,1.44-4.85,3.19,0,2.02,1.71,3.32,4.58,3.32s5.12-1.26,6.06-3.72Z" style="fill: #fff;"/>
    <path d="M221.35,21.23v5.34c-.49-.09-.9-.13-1.3-.13-4.26,0-6.96,2.51-6.96,7.4v11.62h-5.61V21.5h5.34v3.5c1.62-2.51,4.53-3.77,8.53-3.77Z" style="fill: #fff;"/>
    <path d="M266.18,31.73v13.73h-5.61v-13.01c0-4.26-1.97-6.33-5.38-6.33-3.68,0-6.24,2.42-6.24,7.18v12.16h-5.61v-13.01c0-4.26-1.97-6.33-5.38-6.33-3.72,0-6.24,2.42-6.24,7.18v12.16h-5.61V21.5h5.34v3.05c1.79-2.15,4.58-3.32,7.85-3.32,3.5,0,6.42,1.3,8.08,3.99,1.93-2.47,5.16-3.99,8.98-3.99,5.79,0,9.83,3.28,9.83,10.5Z" style="fill: #fff;"/>
    <path d="M293.42,31.41v14.05h-5.29v-2.92c-1.35,2.06-3.95,3.23-7.54,3.23-5.48,0-8.93-3.01-8.93-7.18s2.69-7.13,9.96-7.13h6.19v-.36c0-3.28-1.97-5.21-5.97-5.21-2.69,0-5.47,.9-7.27,2.38l-2.2-4.08c2.56-1.97,6.28-2.96,10.14-2.96,6.91,0,10.9,3.28,10.9,10.19Zm-5.61,6.55v-2.78h-5.79c-3.81,0-4.85,1.44-4.85,3.19,0,2.02,1.71,3.32,4.58,3.32s5.12-1.26,6.06-3.72Z" style="fill: #fff;"/>
  </g>
  <g>
    <path d="M240.78,48.63v13.65h-1.38v-10.92l-5.36,9.19h-.68l-5.36-9.13v10.86h-1.38v-13.65h1.19l5.93,10.12,5.87-10.12h1.19Z" style="fill: #ff0032;"/>
    <path d="M253.87,57.58h-8.58c.16,2.14,1.79,3.57,4.04,3.57,1.25,0,2.36-.45,3.14-1.35l.78,.9c-.92,1.09-2.34,1.68-3.96,1.68-3.2,0-5.38-2.18-5.38-5.23s2.12-5.21,5.01-5.21,4.97,2.12,4.97,5.21c0,.12-.02,.27-.02,.43Zm-8.58-1.03h7.27c-.18-2.01-1.64-3.41-3.65-3.41s-3.45,1.4-3.63,3.41Zm3.72-6.1h-1.36l2.67-2.42h1.85l-3.16,2.42Z" style="fill: #ff0032;"/>
    <path d="M262.96,62.28l-3.26-4.29-3.28,4.29h-1.56l4.06-5.27-3.86-4.99h1.56l3.08,4.02,3.08-4.02h1.52l-3.86,4.99,4.1,5.27h-1.58Z" style="fill: #ff0032;"/>
    <path d="M266.53,48.79c0-.53,.45-.98,1.01-.98s1.01,.43,1.01,.96c0,.57-.43,1.01-1.01,1.01s-1.01-.45-1.01-.99Zm.31,3.24h1.38v10.26h-1.38v-10.26Z" style="fill: #ff0032;"/>
    <path d="M271.05,57.15c0-3.06,2.22-5.21,5.28-5.21,1.74,0,3.2,.68,4.02,2.03l-1.03,.7c-.7-1.03-1.79-1.52-2.98-1.52-2.24,0-3.88,1.6-3.88,4s1.64,4,3.88,4c1.19,0,2.28-.47,2.98-1.5l1.03,.7c-.82,1.33-2.28,2.03-4.02,2.03-3.06,0-5.28-2.17-5.28-5.23Z" style="fill: #ff0032;"/>
    <path d="M281.86,57.15c0-3.04,2.22-5.21,5.23-5.21s5.21,2.16,5.21,5.21-2.2,5.23-5.21,5.23-5.23-2.18-5.23-5.23Zm9.03,0c0-2.4-1.62-4-3.8-4s-3.82,1.6-3.82,4,1.64,4,3.82,4,3.8-1.6,3.8-4Z" style="fill: #ff0032;"/>
  </g>
  <g>
    <path d="M7.57,0C3.39,0,0,3.39,0,7.57V54.21c0,4.18,3.39,7.57,7.57,7.57H47.76c4.18,0,7.57-3.39,7.57-7.57V7.57C55.33,3.39,51.94,0,47.76,0H7.57Z" style="fill: #fff;"/>
    <path d="M27.67,59.61c-11.1,0-20.49-7.32-23.62-17.39h0c0-.39,.18-.58,.56-.59H23.5c.95-.02,1.43-.52,1.42-1.51V3.09C24.97,.9,24.01-.05,22.25,0H7.57C3.39,0,0,3.39,0,7.57V54.21c0,4.18,3.39,7.57,7.57,7.57H47.76c4.18,0,7.57-3.39,7.57-7.57V7.57C55.33,3.39,51.94,0,47.76,0h-14.68c-1.76-.05-2.72,.89-2.67,3.09V40.12c0,.99,.47,1.48,1.42,1.51h18.89c.37,0,.56,.2,.56,.59h0c-3.13,10.07-12.52,17.39-23.62,17.39h0Z" style="fill: #ff0032;"/>
  </g>
</svg>